<?xml version="1.0" standalone="no"?>
<!DOCTYPE svg PUBLIC "-//W3C//DTD SVG 20010904//EN"
 "http://www.w3.org/TR/2001/REC-SVG-20010904/DTD/svg10.dtd">
<svg version="1.0" xmlns="http://www.w3.org/2000/svg"
 width="320.000000pt" height="320.000000pt" viewBox="0 0 320.000000 320.000000"
 preserveAspectRatio="xMidYMid meet">
<metadata>
Created by potrace 1.11, written by Peter Selinger 2001-2013
</metadata>
<g transform="translate(0.000000,320.000000) scale(0.100000,-0.100000)"
fill="#000000" stroke="none">
<path d="M630 3190 c0 -6 11 -15 24 -21 24 -11 24 -12 -49 -100 -97 -117 -152
-161 -236 -188 -55 -18 -84 -54 -84 -106 0 -36 -4 -45 -27 -58 -41 -24 -62
-65 -65 -126 -2 -31 -4 -74 -6 -96 -2 -35 1 -40 20 -43 13 -2 37 8 55 21 18
13 47 28 63 31 17 5 50 29 78 59 42 46 47 49 46 27 -1 -39 -10 -55 -79 -131
-65 -73 -99 -129 -78 -129 5 0 39 23 74 51 l65 51 -7 -133 c-6 -127 -5 -135
15 -156 11 -12 28 -26 36 -31 14 -7 14 -18 4 -83 -13 -84 -22 -100 -38 -71
-15 29 -72 45 -131 37 -55 -8 -79 -28 -86 -76 -5 -29 1 -42 43 -94 26 -33 68
-91 92 -128 24 -37 46 -66 48 -63 3 3 -26 63 -64 135 -79 152 -79 164 5 169
61 4 116 -20 108 -46 -2 -9 -8 -76 -11 -148 -7 -121 -5 -134 15 -183 13 -28
24 -50 26 -48 2 2 -3 37 -12 78 -16 73 -15 142 3 327 6 69 17 80 27 27 4 -21
17 -41 31 -51 37 -24 30 -37 -15 -32 -22 2 -40 1 -40 -2 0 -13 25 -30 45 -30
l21 0 -17 -67 c-20 -76 -24 -234 -9 -347 7 -57 24 -100 93 -240 139 -279 249
-445 334 -506 26 -19 68 -53 94 -77 43 -41 124 -72 141 -55 4 4 -6 25 -21 47
-24 35 -33 41 -77 46 -53 7 -117 41 -173 93 -90 83 -344 544 -369 670 -26 128
-8 403 28 440 5 5 20 1 36 -10 15 -10 34 -23 43 -29 9 -5 29 -19 46 -30 53
-35 158 -85 233 -110 67 -23 89 -25 298 -28 l226 -2 24 28 c22 25 24 37 24
121 l0 94 40 16 c24 9 69 16 110 16 40 0 70 4 70 10 0 6 -40 10 -99 10 -79 0
-100 -3 -105 -15 -9 -25 -22 -17 -34 23 -11 36 -11 38 26 70 20 18 55 45 77
59 22 14 92 78 155 141 111 112 119 117 240 175 120 57 283 127 294 127 3 0 6
-84 6 -186 l0 -186 -52 44 c-79 66 -120 94 -148 103 -14 4 -42 16 -62 26 -21
11 -38 15 -38 10 0 -15 52 -48 111 -71 30 -11 85 -45 122 -75 l67 -55 0 -80 0
-81 -32 17 c-57 29 -165 62 -240 73 -103 14 -309 33 -314 29 -3 -4 137 -25
312 -47 81 -10 162 -34 232 -68 l37 -18 3 -106 3 -105 -41 -60 c-49 -73 -59
-114 -36 -162 l17 -35 -93 6 c-171 11 -327 77 -363 152 -15 33 -17 56 -12 144
6 123 15 153 64 203 20 21 34 41 30 44 -8 8 -77 -43 -77 -57 0 -5 -6 -9 -14
-9 -19 0 -30 -99 -24 -228 4 -113 13 -131 96 -185 67 -45 199 -77 345 -85
l107 -5 0 -27 c0 -51 -20 -135 -43 -180 -132 -261 -242 -433 -355 -551 -71
-75 -89 -88 -125 -94 -23 -4 -101 -25 -174 -46 -104 -30 -327 -89 -338 -89 -1
0 -8 27 -15 60 -7 33 -16 60 -20 60 -10 0 25 -162 41 -192 24 -45 74 -107 87
-108 19 0 16 6 -32 64 -50 62 -64 95 -46 106 7 4 35 11 62 14 27 4 119 27 205
52 85 25 176 49 202 54 45 8 45 7 22 -9 -13 -9 -56 -27 -95 -41 -45 -16 -71
-30 -71 -40 0 -39 152 14 199 71 14 16 34 29 44 29 11 0 49 9 83 20 35 10 64
18 65 17 1 -1 9 -16 18 -34 24 -48 20 -76 -15 -102 -40 -30 -64 -87 -79 -186
-12 -83 -32 -126 -86 -187 -40 -46 -68 -64 -135 -88 l-54 -19 387 -1 387 0 12
34 c14 39 23 38 72 -9 22 -21 35 -26 70 -23 l42 3 -50 34 c-66 44 -116 101
-109 123 12 38 5 160 -10 183 -10 15 -16 46 -16 80 0 63 -26 126 -63 150 -18
11 -210 45 -259 45 -4 0 -17 18 -28 40 -27 53 -62 70 -91 44 -15 -13 -19 -26
-15 -46 6 -33 5 -34 -63 -43 l-54 -7 72 83 c90 104 178 235 269 404 56 105 74
130 90 128 27 -3 38 13 45 66 3 24 21 68 40 100 33 54 54 70 105 86 22 6 23 5
12 -17 -7 -12 -26 -39 -44 -58 -17 -19 -22 -28 -12 -20 42 32 -29 -73 -104
-154 -41 -44 -61 -71 -45 -59 47 33 127 123 160 180 17 29 36 53 44 53 27 0
123 -35 128 -46 14 -37 -78 -99 -189 -130 -32 -8 -58 -19 -58 -22 0 -4 33 -5
73 -2 98 9 218 65 245 117 34 64 2 93 -101 93 -42 0 -77 4 -77 8 0 5 31 23 69
40 48 22 98 59 162 117 51 46 97 91 101 99 30 54 42 432 19 601 -7 50 -13 127
-12 173 0 56 -4 93 -14 112 -11 21 -15 62 -15 146 0 127 -14 169 -63 191 -20
9 -26 23 -36 83 -12 74 -23 103 -70 177 l-26 43 -240 0 c-202 -1 -237 -3 -222
-14 9 -7 17 -16 17 -19 0 -10 -63 4 -87 19 -17 11 -74 14 -251 14 l-229 0 -84
-66 c-85 -67 -121 -89 -194 -118 l-40 -16 47 43 c25 24 84 69 129 100 l83 57
-452 0 c-301 0 -452 -3 -452 -10z m1105 -9 c-5 -9 -76 -38 -135 -56 -45 -13
-14 6 57 35 75 31 87 35 78 21z m-996 -54 c-47 -46 -104 -90 -159 -122 -20
-12 39 61 82 102 39 36 97 73 117 73 7 0 -11 -24 -40 -53z m376 30 c-14 -21
-95 -75 -95 -63 0 5 101 85 108 86 1 0 -4 -10 -13 -23z m-85 -32 c0 -2 -10 -9
-22 -15 -22 -11 -22 -10 -4 4 21 17 26 19 26 11z m280 -40 c-47 -47 -167 -131
-176 -123 -9 10 192 168 214 168 3 0 -14 -20 -38 -45z m787 -8 c-6 -20 -27
-19 -27 2 0 14 5 19 15 14 9 -3 14 -10 12 -16z m-1072 -27 c-10 -11 -21 -17
-24 -14 -3 3 3 12 13 20 28 20 32 17 11 -6z m45 -24 c0 -3 -18 -26 -40 -51
-22 -25 -40 -42 -40 -37 0 4 16 27 36 50 33 39 44 48 44 38z m560 -4 c0 -10
-101 -112 -111 -112 -5 0 -9 15 -9 34 0 25 6 38 27 51 38 26 93 41 93 27z
m-110 -22 c-20 -13 -33 -13 -25 0 3 6 14 10 23 10 15 0 15 -2 2 -10z m-300
-115 c-33 -33 -52 -45 -74 -45 l-30 0 30 31 c29 30 75 57 104 58 8 1 -6 -19
-30 -44z m24 -10 c-14 -19 -31 -35 -37 -35 -6 0 4 16 23 35 19 19 36 35 37 35
2 0 -8 -16 -23 -35z m-484 -46 c-9 -15 -15 -18 -23 -10 -7 7 -5 16 8 32 22 24
32 10 15 -22z m890 -50 c-27 -22 -65 -39 -83 -39 -11 1 91 59 103 59 3 0 -6
-9 -20 -20z m-520 -34 c0 -2 -10 -9 -22 -15 -22 -11 -22 -10 -4 4 21 17 26 19
26 11z m720 -10 c0 -4 -75 -39 -110 -50 -20 -6 -21 -5 -10 15 6 11 21 25 33
30 23 9 87 13 87 5z m-800 -26 c0 -3 -25 -29 -56 -58 -41 -38 -62 -51 -80 -49
-24 3 -23 4 21 60 40 51 48 56 80 55 19 -1 35 -5 35 -8z m1160 6 c0 -5 -70
-51 -110 -73 -14 -7 -2 7 25 32 42 38 85 59 85 41z m398 -164 l-3 -96 -14 53
c-15 62 -6 208 11 163 5 -14 7 -68 6 -120z m-1098 114 c0 -14 -111 -74 -147
-80 -24 -4 -43 -4 -43 -1 0 11 107 60 188 85 1 1 2 -1 2 -4z m233 -73 c-16
-20 -40 -38 -52 -40 -25 -4 -25 -2 -7 43 12 27 21 34 48 37 18 2 35 2 37 1 3
-2 -9 -20 -26 -41z m-169 -27 c-4 -8 -13 -15 -21 -15 -13 0 -13 3 -3 15 7 8
16 15 21 15 5 0 6 -7 3 -15z m-309 -45 c-22 -10 -47 -19 -55 -19 -8 0 5 9 30
19 58 24 77 24 25 0z m1013 8 c-3 -7 -22 -18 -44 -24 -21 -7 -111 -46 -198
-88 -88 -41 -162 -74 -164 -71 -2 2 5 16 17 31 22 28 136 82 286 135 89 32
109 35 103 17z m-731 -30 c-12 -31 -17 -33 -67 -36 l-53 -3 44 35 c24 19 54
35 67 35 21 1 21 0 9 -31z m122 5 c-13 -16 -27 -32 -32 -38 -8 -10 8 39 19 56
3 5 12 9 21 9 13 0 12 -5 -8 -27z m-1278 -76 c-27 -28 -52 -49 -55 -47 -2 3
19 34 47 68 38 46 53 59 55 47 3 -11 -16 -38 -47 -68z m1069 10 c-14 -6 -34
-20 -45 -30 -11 -11 -64 -52 -117 -93 l-97 -74 -83 -1 c-46 0 -119 -4 -163 -9
-44 -4 -81 -7 -82 -6 -1 1 20 26 47 56 l48 55 24 -22 c44 -42 87 -32 259 57
119 61 163 79 194 79 38 0 39 -1 15 -12z m40 -51 c-5 -15 -10 -41 -10 -58 0
-17 -12 -57 -26 -89 -25 -56 -27 -57 -53 -47 -14 5 -63 18 -108 27 l-83 17
106 78 c89 66 171 112 182 101 1 -1 -2 -14 -8 -29z m341 -49 c-13 -12 -20 -15
-16 -7 14 26 28 41 33 35 3 -3 -5 -16 -17 -28z m724 -223 c-10 -52 -21 -91
-26 -88 -5 3 -9 78 -8 167 l1 162 25 -74 26 -74 -18 -93z m-251 98 c4 -81 2
-121 -4 -117 -6 4 -10 58 -10 127 0 67 2 119 4 117 2 -2 6 -59 10 -127z m523
-172 l0 -115 -7 100 c-4 55 -8 134 -7 175 l0 75 7 -60 c4 -33 8 -112 7 -175z
m-1354 175 c-3 -9 -8 -14 -10 -11 -3 3 -2 9 2 15 9 16 15 13 8 -4z m-328 -4
c-3 -5 -86 -64 -185 -130 -184 -123 -321 -202 -287 -164 9 11 31 49 48 84 17
35 49 92 72 127 43 64 59 74 142 85 62 8 216 7 210 -2z m180 -22 c92 -30 91
-28 57 -95 -16 -33 -41 -94 -57 -136 -22 -64 -25 -81 -15 -93 19 -23 32 -19
80 30 25 24 48 44 53 45 12 0 8 -85 -5 -98 -9 -9 -9 -12 1 -12 11 0 12 -12 8
-50 -14 -113 -37 -123 -272 -124 l-180 -1 -82 37 c-69 30 -273 160 -273 173 0
2 39 24 88 50 48 25 170 104 272 175 208 145 196 141 325 99z m164 -139 l31
-12 -72 -59 c-40 -33 -77 -59 -82 -59 -16 0 2 99 31 162 l27 61 17 -40 c11
-27 27 -44 48 -53z m821 -15 c4 -63 0 -106 -10 -100 -5 3 -10 38 -10 78 0 43
4 67 9 62 5 -6 10 -23 11 -40z m-1823 -17 c-3 -8 -6 -5 -6 6 -1 11 2 17 5 13
3 -3 4 -12 1 -19z m1810 -150 c-2 -13 -4 -5 -4 17 -1 22 1 32 4 23 2 -10 2
-28 0 -40z m143 0 c0 -26 -4 -38 -8 -30 -8 12 -4 72 4 72 2 0 4 -19 4 -42z
m-9 -135 c-21 -92 -33 -99 -26 -14 6 81 12 98 28 82 7 -7 7 -28 -2 -68z m240
-119 c21 -4 39 -10 39 -14 0 -12 -75 -77 -108 -94 -16 -8 -51 -23 -79 -34
l-50 -19 20 41 c11 23 30 54 43 69 13 15 26 44 30 65 10 54 13 55 41 22 17
-20 38 -32 64 -36z m-285 -95 c-26 -45 -33 -48 -17 -7 6 13 13 46 17 73 l7 50
9 -36 c8 -29 5 -42 -16 -80z m44 24 c0 -5 -10 -19 -21 -33 l-20 -25 16 33 c15
30 25 41 25 25z m-106 -135 c-15 -24 -28 -45 -30 -47 -2 -2 -4 17 -4 42 0 46
1 47 30 47 l30 0 -26 -42z m-198 -846 c-10 -2 -22 0 -28 6 -6 6 0 7 19 4 21
-5 23 -7 9 -10z m155 -28 c31 -15 59 -55 59 -84 0 -36 -37 -15 -63 37 -9 17
-29 41 -44 53 -28 22 -28 22 -3 15 14 -4 37 -13 51 -21z"/>
<path d="M1025 1950 c-35 -39 3 -91 55 -75 28 9 37 51 15 75 -10 11 -26 20
-35 20 -9 0 -25 -9 -35 -20z"/>
<path d="M1906 1844 c-23 -23 -20 -45 15 -98 43 -65 64 -59 64 16 -1 80 -40
122 -79 82z"/>
<path d="M1828 1156 c-43 -23 -88 -52 -100 -63 -13 -11 -43 -31 -68 -43 -39
-20 -54 -22 -128 -17 -72 5 -89 10 -119 34 -63 51 -81 57 -109 39 -16 -11 -24
-26 -24 -45 0 -31 14 -46 81 -85 l46 -26 107 17 c102 16 109 19 176 69 38 29
96 67 129 84 33 18 67 43 76 56 8 13 14 24 13 23 -2 0 -38 -20 -80 -43z"/>
<path d="M685 681 l-30 -48 -90 -6 c-103 -7 -270 6 -334 25 -41 12 -44 11 -62
-11 -10 -13 -19 -35 -19 -51 0 -29 -56 -150 -70 -150 -5 0 -25 -15 -44 -34
l-36 -33 0 -106 c0 -100 2 -109 31 -158 16 -28 33 -65 36 -80 l6 -29 246 0
247 0 14 67 c7 38 18 83 24 101 l12 34 36 -79 c20 -43 39 -87 41 -98 3 -11 5
2 6 29 1 36 -8 69 -35 129 -34 75 -37 88 -38 182 -1 93 2 105 33 175 19 41 47
94 62 117 33 48 37 73 11 73 -11 0 -30 -19 -47 -49z m-59 -123 c-4 -13 -12
-49 -19 -80 l-11 -57 -43 72 c-24 40 -43 75 -43 80 0 4 28 7 61 7 59 0 61 -1
55 -22z"/>
<path d="M1198 443 c7 -3 16 -2 19 1 4 3 -2 6 -13 5 -11 0 -14 -3 -6 -6z"/>
<path d="M1761 134 c-51 -22 -204 -128 -191 -132 6 -2 39 15 75 38 35 23 92
57 127 75 63 34 55 48 -11 19z"/>
<path d="M1520 115 c0 -8 14 -22 31 -31 33 -16 33 -9 1 29 -18 21 -32 22 -32
2z"/>
</g>
</svg>
